<svg xmlns="http://www.w3.org/2000/svg" width="787.783" height="600.069" viewBox="0 0 787.783 600.069">
  <g id="icon" transform="translate(0 -61)">
    <g id="Grupo_7" data-name="Grupo 7" transform="translate(0 61)">
      <path id="Trazado_27" data-name="Trazado 27" d="M718.544,61H69.239A69.357,69.357,0,0,0,0,130.239V591.83a69.351,69.351,0,0,0,69.239,69.239H718.544a69.351,69.351,0,0,0,69.239-69.239V130.239A69.351,69.351,0,0,0,718.544,61Zm-9.561,46.159L395.359,420.784,79.023,107.159ZM46.159,582.272v-442.7l222.3,220.394ZM78.8,614.91,301.239,392.469l77.943,77.273a23.079,23.079,0,0,0,32.568-.071l76-76L708.984,614.91Zm662.825-32.639L520.387,361.034,741.624,139.8Z" transform="translate(0 -61)" fill="#e74c3c"/>
    </g>
  </g>
</svg>
