<svg xmlns="http://www.w3.org/2000/svg" width="526.057" height="526.056" viewBox="0 0 526.057 526.056">
  <path id="phone-call" d="M464.424,526.055a61.846,61.846,0,0,0,61.965-61.795V381.3a61.628,61.628,0,0,0-54.654-61.387A300.915,300.915,0,0,1,417.6,308.688a61.745,61.745,0,0,0-61.872,15.255l-33.617,33.614A387.636,387.636,0,0,1,168.825,204.282l33.62-33.617A61.74,61.74,0,0,0,217.7,108.79a300.937,300.937,0,0,1-11.222-54.134A61.622,61.622,0,0,0,145.091,0H62.13A61.863,61.863,0,0,0,.592,67.631a503.227,503.227,0,0,0,46.9,170.837,507.1,507.1,0,0,0,99.56,140.867A507.047,507.047,0,0,0,287.917,478.9a503.422,503.422,0,0,0,170.84,46.9q2.837.265,5.667.26ZM399.306,347.044a21.476,21.476,0,0,1,6.267.944,341.831,341.831,0,0,0,61.561,12.763A20.561,20.561,0,0,1,485.291,381.3v82.964a20.394,20.394,0,0,1-6.733,15.245,20.662,20.662,0,0,1-16.031,5.362c-223.385-20.559-400.448-197.624-421.009-421a20.709,20.709,0,0,1,5.362-16.035A20.427,20.427,0,0,1,62.13,41.1h82.961A20.564,20.564,0,0,1,165.64,59.256a341.826,341.826,0,0,0,12.756,61.56,20.716,20.716,0,0,1-5.012,20.79L118.65,196.34l6.582,13.232A428.408,428.408,0,0,0,316.824,401.147l13.232,6.589L384.787,353a20.467,20.467,0,0,1,14.519-5.956Zm0,0" transform="translate(-0.332 0.001)" fill="#2ecc71"/>
</svg>
