<svg id="follower" xmlns="http://www.w3.org/2000/svg" width="511.999" height="512" viewBox="0 0 511.999 512">
  <g id="Grupo_16" data-name="Grupo 16">
    <path id="Trazado_34" data-name="Trazado 34" d="M437.019,310.826a254.953,254.953,0,0,0-99.125-61.652,137.965,137.965,0,0,0,56.183-111.1C394.078,61.941,332.137,0,256,0S117.922,61.941,117.922,138.077a137.962,137.962,0,0,0,56.183,111.1A256.407,256.407,0,0,0,0,491.846,20.154,20.154,0,0,0,20.154,512H491.845A20.154,20.154,0,0,0,512,491.846,254.321,254.321,0,0,0,437.019,310.826ZM158.232,138.077A97.769,97.769,0,1,1,256,235.845,97.878,97.878,0,0,1,158.232,138.077ZM41.243,471.691C51.437,362.172,143.863,276.154,256,276.154s204.563,86.017,214.757,195.537H41.243Z" fill="#4486f1"/>
  </g>
</svg>
